<svg width="24" height="24" viewBox="0 0 24 24" fill="none" xmlns="http://www.w3.org/2000/svg">
<path d="M22.46 6C21.69 6.35 20.86 6.58 20 6.69C20.88 6.16 21.56 5.32 21.88 4.31C21.05 4.81 20.13 5.16 19.16 5.36C18.37 4.5 17.26 4 16 4C13.65 4 11.73 5.92 11.73 8.29C11.73 8.63 11.77 8.96 11.84 9.27C8.27999 9.09 5.10999 7.38 2.99999 4.79C2.62999 5.42 2.41999 6.16 2.41999 6.94C2.41999 8.43 3.16999 9.75 4.32999 10.5C3.61999 10.5 2.95999 10.3 2.37999 10C2.37999 10 2.37999 10 2.37999 10.03C2.37999 12.11 3.85999 13.85 5.81999 14.24C5.45999 14.34 5.07999 14.39 4.68999 14.39C4.41999 14.39 4.14999 14.36 3.88999 14.31C4.42999 16 5.99999 17.26 7.88999 17.29C6.42999 18.45 4.57999 19.13 2.55999 19.13C2.21999 19.13 1.87999 19.11 1.53999 19.07C3.43999 20.29 5.69999 21 8.11999 21C16 21 20.33 14.46 20.33 8.79C20.33 8.6 20.33 8.42 20.32 8.23C21.16 7.63 21.88 6.87 22.46 6Z" fill="#1a202c"/>
</svg>
